<svg width="175" height="34" viewBox="0 0 175 34" fill="none" xmlns="http://www.w3.org/2000/svg">
<path d="M0.117055 26V0.545454H3.19944V23.2656H15.0318V26H0.117055ZM22.455 26H19.2235L28.5701 0.545454H31.7519L41.0985 26H37.867L30.2604 4.57244H30.0616L22.455 26ZM23.6482 16.0568H36.6738V18.7912H23.6482V16.0568ZM45.0633 26V0.545454H48.1457V13.1733H48.444L59.8787 0.545454H63.9057L53.2168 12.0298L63.9057 26H60.177L51.3275 14.1676L48.1457 17.7472V26H45.0633ZM84.5999 0.545454H87.6823V17.3991C87.6823 19.1392 87.2722 20.6928 86.4518 22.06C85.6398 23.4189 84.4922 24.492 83.009 25.2791C81.5258 26.058 79.7858 26.4474 77.7888 26.4474C75.7919 26.4474 74.0519 26.058 72.5687 25.2791C71.0855 24.492 69.9337 23.4189 69.1134 22.06C68.3014 20.6928 67.8954 19.1392 67.8954 17.3991V0.545454H70.9778V17.1506C70.9778 18.3935 71.2512 19.4996 71.7981 20.4691C72.3449 21.4303 73.1238 22.1884 74.1347 22.7436C75.1539 23.2905 76.3719 23.5639 77.7888 23.5639C79.2057 23.5639 80.4238 23.2905 81.443 22.7436C82.4621 22.1884 83.241 21.4303 83.7796 20.4691C84.3265 19.4996 84.5999 18.3935 84.5999 17.1506V0.545454Z" fill="#72C100"/>
<path d="M107.758 6.90909C107.609 5.64962 107.004 4.67188 105.944 3.97585C104.883 3.27983 103.582 2.93182 102.041 2.93182C100.914 2.93182 99.928 3.11411 99.0828 3.47869C98.2459 3.84328 97.5913 4.34458 97.119 4.9826C96.655 5.62062 96.423 6.34564 96.423 7.15767C96.423 7.83712 96.5846 8.42128 96.9077 8.91016C97.2392 9.39074 97.6617 9.79261 98.1755 10.1158C98.6892 10.4306 99.2278 10.6916 99.7912 10.8988C100.355 11.0977 100.873 11.2592 101.345 11.3835L103.93 12.0795C104.593 12.2536 105.33 12.4938 106.142 12.8004C106.963 13.107 107.746 13.5254 108.492 14.0558C109.246 14.5778 109.867 15.2489 110.356 16.0692C110.845 16.8896 111.089 17.8963 111.089 19.0895C111.089 20.465 110.729 21.7079 110.008 22.8182C109.295 23.9285 108.251 24.811 106.876 25.4656C105.509 26.1201 103.847 26.4474 101.892 26.4474C100.069 26.4474 98.4903 26.1533 97.1563 25.565C95.8305 24.9767 94.7865 24.1564 94.0242 23.104C93.2702 22.0517 92.8434 20.8295 92.744 19.4375H95.9258C96.0087 20.3987 96.3318 21.1941 96.8953 21.8239C97.467 22.4453 98.1879 22.9093 99.0579 23.2159C99.9362 23.5142 100.881 23.6634 101.892 23.6634C103.068 23.6634 104.125 23.4728 105.061 23.0916C105.997 22.7022 106.739 22.1636 107.286 21.4759C107.833 20.7798 108.106 19.9678 108.106 19.0398C108.106 18.1946 107.87 17.5069 107.398 16.9766C106.925 16.4463 106.304 16.0154 105.533 15.6839C104.763 15.3525 103.93 15.0625 103.035 14.8139L99.9031 13.919C97.9145 13.3473 96.3401 12.5311 95.1801 11.4705C94.02 10.4099 93.44 9.02202 93.44 7.30682C93.44 5.88163 93.8253 4.63873 94.5959 3.57812C95.3748 2.50923 96.4188 1.68063 97.728 1.09233C99.0455 0.495738 100.516 0.197442 102.14 0.197442C103.781 0.197442 105.239 0.491595 106.515 1.0799C107.791 1.65992 108.802 2.45537 109.548 3.46626C110.302 4.47715 110.7 5.62476 110.741 6.90909H107.758ZM118.693 14.5156V26H115.759V0.545454H118.693V9.89205H118.941C119.389 8.90601 120.06 8.12299 120.955 7.54297C121.858 6.95466 123.059 6.66051 124.559 6.66051C125.86 6.66051 126.999 6.92152 127.977 7.44354C128.955 7.95727 129.713 8.74858 130.252 9.81747C130.798 10.8781 131.072 12.2287 131.072 13.8693V26H128.139V14.0682C128.139 12.5518 127.745 11.3794 126.958 10.5508C126.179 9.7139 125.098 9.29545 123.714 9.29545C122.753 9.29545 121.891 9.49846 121.129 9.90447C120.375 10.3105 119.778 10.9029 119.339 11.6818C118.908 12.4607 118.693 13.4053 118.693 14.5156ZM144.194 26.3977C142.47 26.3977 140.958 25.9876 139.657 25.1673C138.365 24.3469 137.354 23.1993 136.625 21.7244C135.904 20.2495 135.543 18.526 135.543 16.554C135.543 14.5653 135.904 12.8294 136.625 11.3462C137.354 9.86304 138.365 8.71129 139.657 7.89098C140.958 7.07067 142.47 6.66051 144.194 6.66051C145.917 6.66051 147.425 7.07067 148.718 7.89098C150.019 8.71129 151.03 9.86304 151.751 11.3462C152.48 12.8294 152.844 14.5653 152.844 16.554C152.844 18.526 152.48 20.2495 151.751 21.7244C151.03 23.1993 150.019 24.3469 148.718 25.1673C147.425 25.9876 145.917 26.3977 144.194 26.3977ZM144.194 23.7628C145.503 23.7628 146.58 23.4272 147.425 22.756C148.27 22.0849 148.896 21.2024 149.302 20.1087C149.708 19.0149 149.911 17.83 149.911 16.554C149.911 15.2779 149.708 14.0889 149.302 12.9869C148.896 11.8848 148.27 10.9941 147.425 10.3146C146.58 9.63518 145.503 9.29545 144.194 9.29545C142.885 9.29545 141.807 9.63518 140.962 10.3146C140.117 10.9941 139.491 11.8848 139.085 12.9869C138.679 14.0889 138.476 15.2779 138.476 16.554C138.476 17.83 138.679 19.0149 139.085 20.1087C139.491 21.2024 140.117 22.0849 140.962 22.756C141.807 23.4272 142.885 23.7628 144.194 23.7628ZM157.322 33.1591V6.90909H160.156V9.94176H160.504C160.719 9.61032 161.017 9.18774 161.399 8.674C161.788 8.15199 162.343 7.68797 163.064 7.28196C163.793 6.86766 164.779 6.66051 166.022 6.66051C167.63 6.66051 169.047 7.06238 170.273 7.86612C171.499 8.66986 172.456 9.80919 173.144 11.2841C173.832 12.759 174.176 14.4991 174.176 16.5043C174.176 18.526 173.832 20.2785 173.144 21.7617C172.456 23.2366 171.503 24.3801 170.285 25.1921C169.067 25.9959 167.663 26.3977 166.072 26.3977C164.846 26.3977 163.864 26.1947 163.126 25.7887C162.389 25.3744 161.821 24.9062 161.423 24.3842C161.026 23.8539 160.719 23.4148 160.504 23.0668H160.255V33.1591H157.322ZM160.205 16.4545C160.205 17.8963 160.417 19.1682 160.839 20.2702C161.262 21.364 161.879 22.2216 162.691 22.843C163.503 23.4562 164.498 23.7628 165.674 23.7628C166.9 23.7628 167.924 23.4396 168.744 22.7933C169.573 22.1387 170.194 21.2604 170.608 20.1584C171.031 19.0481 171.242 17.8134 171.242 16.4545C171.242 15.1122 171.035 13.9025 170.621 12.8253C170.215 11.7398 169.598 10.8822 168.769 10.2525C167.949 9.61446 166.917 9.29545 165.674 9.29545C164.481 9.29545 163.478 9.59789 162.666 10.2028C161.854 10.7994 161.241 11.6362 160.827 12.7134C160.413 13.7823 160.205 15.0294 160.205 16.4545Z" fill="#12005C"/>
</svg>
